<svg width="29" height="28" viewBox="0 0 29 28" fill="none" xmlns="http://www.w3.org/2000/svg">
<circle cx="14.5253" cy="14" r="14" fill="white"/>
<circle cx="14.5253" cy="14" r="13.5" stroke="black" stroke-opacity="0.2"/>
<path d="M20.7324 10.9831C20.3134 11.1693 19.8711 11.2857 19.4055 11.3556C19.8711 11.0762 20.2435 10.6339 20.4065 10.0985C19.9642 10.3546 19.4753 10.5408 18.9399 10.6572C18.5209 10.2149 17.9156 9.93555 17.2638 9.93555C16.0068 9.93555 14.9825 10.9598 14.9825 12.2169C14.9825 12.4031 15.0058 12.5661 15.0523 12.729C13.1667 12.6359 11.4674 11.728 10.3267 10.3313C10.1404 10.6805 10.0241 11.0529 10.0241 11.472C10.0241 12.2634 10.4198 12.9618 11.0483 13.3808C10.6759 13.3576 10.3267 13.2644 10.0008 13.1015V13.1248C10.0008 14.2422 10.7923 15.1733 11.8398 15.3828C11.6536 15.4294 11.4441 15.4527 11.2346 15.4527C11.0949 15.4527 10.9319 15.4294 10.7923 15.4061C11.0949 16.314 11.9329 16.9891 12.9339 16.9891C12.1424 17.5943 11.1647 17.9668 10.0939 17.9668C9.90766 17.9668 9.72142 17.9668 9.55847 17.9435C10.5827 18.5953 11.77 18.9678 13.0736 18.9678C17.2871 18.9678 19.5917 15.476 19.5917 12.4497C19.5917 12.3566 19.5917 12.2402 19.5917 12.1471C20.034 11.8444 20.4298 11.4487 20.7324 10.9831Z" fill="black"/>
</svg>
