<svg width="29" height="28" viewBox="0 0 29 28" fill="none" xmlns="http://www.w3.org/2000/svg">
<circle cx="14.5253" cy="14" r="14" fill="white"/>
<circle cx="14.5253" cy="14" r="13.5" stroke="black" stroke-opacity="0.2"/>
<path d="M14.526 8.44721C16.3347 8.44721 16.5489 8.45398 17.2634 8.48656C17.693 8.49182 18.1186 8.5707 18.5215 8.71979C18.8137 8.83248 19.0791 9.00511 19.3005 9.22656C19.522 9.44802 19.6946 9.71339 19.8073 10.0056C19.9564 10.4085 20.0353 10.8341 20.0405 11.2637C20.0728 11.9782 20.0799 12.1924 20.0799 14.0011C20.0799 15.8098 20.0731 16.024 20.0405 16.7385C20.0353 17.1681 19.9564 17.5936 19.8073 17.9966C19.6946 18.2888 19.522 18.5541 19.3005 18.7756C19.0791 18.997 18.8137 19.1697 18.5215 19.2824C18.1186 19.4315 17.693 19.5103 17.2634 19.5156C16.5493 19.5479 16.3351 19.5549 14.526 19.5549C12.717 19.5549 12.5028 19.5482 11.7886 19.5156C11.359 19.5103 10.9335 19.4315 10.5305 19.2824C10.2383 19.1697 9.97296 18.997 9.75151 18.7756C9.53005 18.5541 9.35743 18.2888 9.24473 17.9966C9.09565 17.5936 9.01677 17.1681 9.01151 16.7385C8.97925 16.024 8.97215 15.8098 8.97215 14.0011C8.97215 12.1924 8.97893 11.9782 9.01151 11.2637C9.01677 10.8341 9.09565 10.4085 9.24473 10.0056C9.35743 9.71339 9.53005 9.44802 9.75151 9.22656C9.97296 9.00511 10.2383 8.83248 10.5305 8.71979C10.9335 8.5707 11.359 8.49182 11.7886 8.48656C12.5031 8.4543 12.7173 8.44721 14.526 8.44721ZM14.526 7.22656C12.6873 7.22656 12.4557 7.2343 11.7331 7.26721C11.1709 7.27839 10.6146 7.38485 10.088 7.58205C9.63618 7.75226 9.22699 8.019 8.88893 8.36366C8.54396 8.70184 8.27699 9.11127 8.10667 9.56334C7.90947 10.09 7.80301 10.6463 7.79183 11.2085C7.75957 11.9304 7.75183 12.162 7.75183 14.0008C7.75183 15.8395 7.75957 16.0711 7.79248 16.7937C7.80366 17.3559 7.91012 17.9122 8.10732 18.4388C8.27745 18.8908 8.54419 19.3002 8.88893 19.6385C9.22718 19.9832 9.6366 20.25 10.0886 20.4201C10.6152 20.6173 11.1715 20.7238 11.7338 20.7349C12.4563 20.7672 12.687 20.7756 14.5267 20.7756C16.3663 20.7756 16.597 20.7679 17.3196 20.7349C17.8818 20.7238 18.4381 20.6173 18.9647 20.4201C19.4146 20.2457 19.8231 19.9794 20.1642 19.6381C20.5052 19.2968 20.7713 18.8882 20.9454 18.4382C21.1426 17.9115 21.249 17.3553 21.2602 16.793C21.2925 16.0711 21.3002 15.8395 21.3002 14.0008C21.3002 12.162 21.2925 11.9304 21.2596 11.2079C21.2484 10.6456 21.1419 10.0893 20.9447 9.56269C20.7746 9.11068 20.5079 8.70126 20.1631 8.36301C19.8249 8.01828 19.4155 7.75153 18.9634 7.5814C18.4368 7.3842 17.8805 7.27775 17.3183 7.26656C16.5963 7.2343 16.3647 7.22656 14.526 7.22656Z" fill="black"/>
<path d="M14.5274 10.5234C13.8394 10.5234 13.1668 10.7275 12.5947 11.1097C12.0227 11.492 11.5768 12.0353 11.3135 12.6709C11.0502 13.3066 10.9813 14.006 11.1155 14.6808C11.2498 15.3556 11.5811 15.9755 12.0676 16.462C12.5541 16.9485 13.174 17.2798 13.8488 17.414C14.5236 17.5482 15.223 17.4794 15.8587 17.2161C16.4943 16.9528 17.0376 16.5069 17.4199 15.9348C17.8021 15.3627 18.0061 14.6902 18.0061 14.0021C18.0061 13.0795 17.6396 12.1947 16.9872 11.5423C16.3349 10.8899 15.45 10.5234 14.5274 10.5234ZM14.5274 16.2602C14.0808 16.2602 13.6442 16.1278 13.2729 15.8797C12.9016 15.6315 12.6121 15.2789 12.4412 14.8663C12.2703 14.4537 12.2256 13.9996 12.3127 13.5616C12.3999 13.1236 12.6149 12.7213 12.9307 12.4055C13.2465 12.0897 13.6489 11.8746 14.0869 11.7875C14.5249 11.7003 14.9789 11.7451 15.3915 11.916C15.8041 12.0869 16.1568 12.3763 16.4049 12.7476C16.653 13.119 16.7855 13.5555 16.7855 14.0021C16.7855 14.601 16.5476 15.1754 16.1241 15.5988C15.7006 16.0223 15.1263 16.2602 14.5274 16.2602Z" fill="black"/>
<path d="M18.1429 11.1981C18.5918 11.1981 18.9558 10.8341 18.9558 10.3852C18.9558 9.93621 18.5918 9.57227 18.1429 9.57227C17.6939 9.57227 17.33 9.93621 17.33 10.3852C17.33 10.8341 17.6939 11.1981 18.1429 11.1981Z" fill="black"/>
</svg>
