<svg width="29" height="28" viewBox="0 0 29 28" fill="none" xmlns="http://www.w3.org/2000/svg">
<circle cx="14.5253" cy="14" r="14" fill="white"/>
<circle cx="14.5253" cy="14" r="13.5" stroke="black" stroke-opacity="0.2"/>
<path fill-rule="evenodd" clip-rule="evenodd" d="M15.1321 7.22656C11.5412 7.22656 8.65222 10.1155 8.65222 13.7065C8.65222 16.5684 10.5152 18.9984 13.0802 19.8624C13.4041 19.9164 13.5121 19.7274 13.5121 19.5384C13.5121 19.3764 13.5121 18.9714 13.5121 18.4314C11.7032 18.8364 11.3252 17.5674 11.3252 17.5674C11.0282 16.8114 10.5962 16.6224 10.5962 16.6224C10.0022 16.2174 10.6502 16.2174 10.6502 16.2174C11.2982 16.2714 11.6492 16.8924 11.6492 16.8924C12.2162 17.8914 13.1611 17.5944 13.5391 17.4324C13.5931 17.0004 13.7551 16.7304 13.9441 16.5684C12.5132 16.4064 11.0012 15.8394 11.0012 13.3555C11.0012 12.6535 11.2442 12.0595 11.6762 11.6275C11.6222 11.4655 11.3792 10.8175 11.7302 9.89952C11.7302 9.89952 12.2702 9.73752 13.5121 10.5745C14.0251 10.4395 14.5921 10.3585 15.1321 10.3585C15.6721 10.3585 16.2391 10.4395 16.7521 10.5745C17.9941 9.73752 18.5341 9.89952 18.5341 9.89952C18.8851 10.7905 18.6691 11.4385 18.5881 11.6275C18.9931 12.0865 19.2631 12.6535 19.2631 13.3555C19.2631 15.8394 17.7511 16.3794 16.2931 16.5414C16.5361 16.7304 16.7251 17.1354 16.7251 17.7294C16.7251 18.5934 16.7251 19.2954 16.7251 19.5114C16.7251 19.6734 16.8331 19.8894 17.1841 19.8354C19.749 18.9984 21.612 16.5684 21.612 13.7065C21.612 10.1155 18.7231 7.22656 15.1321 7.22656Z" fill="black"/>
</svg>
