<svg width="286" height="244" viewBox="0 0 286 244" fill="none" xmlns="http://www.w3.org/2000/svg">
<rect width="286" height="244" fill="#D9D9D9"/>
<path d="M87.1013 154.188C85.67 154.188 84.5 153.022 84.5 151.582V64.4097C84.5 62.9784 85.67 61.8123 87.1013 61.8123H198.899C200.33 61.8123 201.5 62.9784 201.5 64.4097V151.582C201.5 153.022 200.33 154.188 198.899 154.188H87.1013ZM92.4716 148.977H192.834L161.369 115.507L146.958 130.827C146.463 131.353 145.777 131.634 145.032 131.634C144.154 131.603 143.456 131.224 142.988 130.612L124.643 106.413L92.4716 148.977ZM161.369 109.1C162.079 109.1 162.769 109.396 163.261 109.915L196.29 145.046V67.0227H89.7104V143.985L122.552 100.528C123.048 99.8802 123.824 99.4824 124.631 99.4824C125.462 99.4824 126.214 99.8646 126.71 100.52L145.27 124.992L159.462 109.911C159.961 109.396 160.651 109.1 161.369 109.1Z" fill="black"/>
<path d="M163.101 99.2991C156.798 99.2991 151.67 94.1667 151.67 87.8643C151.67 81.5619 156.794 76.4373 163.101 76.4373C169.407 76.4373 174.535 81.5619 174.535 87.8643C174.535 94.1667 169.407 99.2991 163.101 99.2991ZM163.101 81.6477C159.672 81.6477 156.88 84.4362 156.88 87.8643C156.88 91.2924 159.672 94.0887 163.101 94.0887C166.533 94.0887 169.325 91.2924 169.325 87.8643C169.325 84.4362 166.533 81.6477 163.101 81.6477Z" fill="black"/>
<path d="M82.46 206V203.42H84.8V194.58H82.46V192H90.14V194.58H87.8V203.42H90.14V206H82.46ZM93.0055 206V195.42H95.7455L95.8055 197.44L95.3855 197.52C95.5321 197.173 95.7255 196.86 95.9655 196.58C96.2055 196.3 96.4855 196.06 96.8055 195.86C97.1388 195.66 97.4855 195.507 97.8455 195.4C98.2055 195.28 98.5655 195.22 98.9255 195.22C99.4721 195.22 99.9655 195.307 100.405 195.48C100.845 195.653 101.219 195.927 101.525 196.3C101.832 196.66 102.072 197.14 102.245 197.74L101.805 197.7L101.945 197.38C102.119 197.06 102.339 196.773 102.605 196.52C102.872 196.253 103.172 196.027 103.505 195.84C103.839 195.64 104.185 195.487 104.545 195.38C104.905 195.273 105.259 195.22 105.605 195.22C106.432 195.22 107.119 195.387 107.665 195.72C108.212 196.04 108.619 196.527 108.885 197.18C109.165 197.833 109.305 198.633 109.305 199.58V206H106.465V199.78C106.465 199.3 106.399 198.907 106.265 198.6C106.132 198.293 105.939 198.067 105.685 197.92C105.432 197.76 105.105 197.68 104.705 197.68C104.399 197.68 104.112 197.733 103.845 197.84C103.592 197.933 103.365 198.073 103.165 198.26C102.979 198.433 102.832 198.64 102.725 198.88C102.619 199.12 102.565 199.387 102.565 199.68V206H99.7255V199.76C99.7255 199.32 99.6521 198.947 99.5055 198.64C99.3721 198.32 99.1788 198.08 98.9255 197.92C98.6721 197.76 98.3588 197.68 97.9855 197.68C97.6788 197.68 97.3921 197.733 97.1255 197.84C96.8721 197.933 96.6521 198.073 96.4655 198.26C96.2788 198.433 96.1255 198.64 96.0055 198.88C95.8988 199.12 95.8455 199.38 95.8455 199.66V206H93.0055ZM115.97 206.2C115.09 206.2 114.297 205.96 113.59 205.48C112.883 205 112.323 204.347 111.91 203.52C111.497 202.693 111.29 201.747 111.29 200.68C111.29 199.613 111.497 198.673 111.91 197.86C112.337 197.033 112.91 196.387 113.63 195.92C114.35 195.44 115.17 195.2 116.09 195.2C116.61 195.2 117.083 195.28 117.51 195.44C117.95 195.587 118.33 195.793 118.65 196.06C118.983 196.327 119.263 196.633 119.49 196.98C119.717 197.327 119.877 197.7 119.97 198.1L119.37 198V195.42H122.19V206H119.33V203.46L119.97 203.4C119.863 203.773 119.69 204.127 119.45 204.46C119.21 204.793 118.91 205.093 118.55 205.36C118.203 205.613 117.81 205.82 117.37 205.98C116.93 206.127 116.463 206.2 115.97 206.2ZM116.75 203.74C117.283 203.74 117.75 203.613 118.15 203.36C118.55 203.107 118.857 202.753 119.07 202.3C119.297 201.833 119.41 201.293 119.41 200.68C119.41 200.08 119.297 199.553 119.07 199.1C118.857 198.647 118.55 198.293 118.15 198.04C117.75 197.773 117.283 197.64 116.75 197.64C116.23 197.64 115.77 197.773 115.37 198.04C114.983 198.293 114.677 198.647 114.45 199.1C114.223 199.553 114.11 200.08 114.11 200.68C114.11 201.293 114.223 201.833 114.45 202.3C114.677 202.753 114.983 203.107 115.37 203.36C115.77 203.613 116.23 203.74 116.75 203.74ZM129.857 210.6C129.017 210.6 128.191 210.473 127.377 210.22C126.564 209.98 125.904 209.667 125.397 209.28L126.397 207.24C126.664 207.427 126.971 207.593 127.317 207.74C127.664 207.887 128.024 208 128.397 208.08C128.784 208.16 129.177 208.2 129.577 208.2C130.271 208.2 130.837 208.093 131.277 207.88C131.731 207.667 132.071 207.347 132.297 206.92C132.524 206.507 132.637 205.973 132.637 205.32V203.48L133.117 203.58C133.037 204.02 132.817 204.427 132.457 204.8C132.097 205.16 131.644 205.453 131.097 205.68C130.551 205.893 129.991 206 129.417 206C128.431 206 127.557 205.773 126.797 205.32C126.037 204.867 125.437 204.24 124.997 203.44C124.557 202.64 124.337 201.72 124.337 200.68C124.337 199.613 124.551 198.673 124.977 197.86C125.417 197.033 126.011 196.387 126.757 195.92C127.517 195.44 128.377 195.2 129.337 195.2C129.737 195.2 130.117 195.247 130.477 195.34C130.851 195.433 131.191 195.567 131.497 195.74C131.817 195.9 132.097 196.087 132.337 196.3C132.591 196.5 132.797 196.72 132.957 196.96C133.117 197.2 133.217 197.44 133.257 197.68L132.677 197.84L132.757 195.42H135.477V205.2C135.477 206.067 135.351 206.833 135.097 207.5C134.844 208.167 134.471 208.727 133.977 209.18C133.497 209.647 132.904 210 132.197 210.24C131.504 210.48 130.724 210.6 129.857 210.6ZM129.937 203.72C130.497 203.72 130.984 203.593 131.397 203.34C131.824 203.087 132.151 202.733 132.377 202.28C132.604 201.827 132.717 201.293 132.717 200.68C132.717 200.08 132.604 199.553 132.377 199.1C132.151 198.633 131.824 198.273 131.397 198.02C130.984 197.767 130.497 197.64 129.937 197.64C129.391 197.64 128.904 197.773 128.477 198.04C128.064 198.293 127.744 198.647 127.517 199.1C127.291 199.553 127.177 200.08 127.177 200.68C127.177 201.28 127.291 201.813 127.517 202.28C127.744 202.733 128.064 203.087 128.477 203.34C128.904 203.593 129.391 203.72 129.937 203.72ZM143.319 206.2C142.172 206.2 141.172 205.967 140.319 205.5C139.466 205.033 138.799 204.393 138.319 203.58C137.839 202.767 137.599 201.833 137.599 200.78C137.599 199.967 137.732 199.22 137.999 198.54C138.266 197.86 138.639 197.273 139.119 196.78C139.599 196.273 140.166 195.887 140.819 195.62C141.486 195.34 142.206 195.2 142.979 195.2C143.699 195.2 144.366 195.333 144.979 195.6C145.592 195.853 146.119 196.22 146.559 196.7C147.012 197.167 147.359 197.72 147.599 198.36C147.839 199 147.946 199.7 147.919 200.46L147.899 201.34H139.399L138.939 199.6H145.559L145.239 199.96V199.52C145.212 199.16 145.092 198.833 144.879 198.54C144.679 198.247 144.419 198.02 144.099 197.86C143.779 197.7 143.419 197.62 143.019 197.62C142.432 197.62 141.932 197.733 141.519 197.96C141.119 198.187 140.812 198.52 140.599 198.96C140.386 199.4 140.279 199.933 140.279 200.56C140.279 201.2 140.412 201.753 140.679 202.22C140.959 202.687 141.346 203.053 141.839 203.32C142.346 203.573 142.939 203.7 143.619 203.7C144.086 203.7 144.512 203.627 144.899 203.48C145.286 203.333 145.699 203.08 146.139 202.72L147.499 204.62C147.112 204.967 146.686 205.26 146.219 205.5C145.752 205.727 145.272 205.9 144.779 206.02C144.286 206.14 143.799 206.2 143.319 206.2ZM161.17 206.2C160.024 206.2 159.024 205.967 158.17 205.5C157.317 205.033 156.65 204.393 156.17 203.58C155.69 202.767 155.45 201.833 155.45 200.78C155.45 199.967 155.584 199.22 155.85 198.54C156.117 197.86 156.49 197.273 156.97 196.78C157.45 196.273 158.017 195.887 158.67 195.62C159.337 195.34 160.057 195.2 160.83 195.2C161.55 195.2 162.217 195.333 162.83 195.6C163.444 195.853 163.97 196.22 164.41 196.7C164.864 197.167 165.21 197.72 165.45 198.36C165.69 199 165.797 199.7 165.77 200.46L165.75 201.34H157.25L156.79 199.6H163.41L163.09 199.96V199.52C163.064 199.16 162.944 198.833 162.73 198.54C162.53 198.247 162.27 198.02 161.95 197.86C161.63 197.7 161.27 197.62 160.87 197.62C160.284 197.62 159.784 197.733 159.37 197.96C158.97 198.187 158.664 198.52 158.45 198.96C158.237 199.4 158.13 199.933 158.13 200.56C158.13 201.2 158.264 201.753 158.53 202.22C158.81 202.687 159.197 203.053 159.69 203.32C160.197 203.573 160.79 203.7 161.47 203.7C161.937 203.7 162.364 203.627 162.75 203.48C163.137 203.333 163.55 203.08 163.99 202.72L165.35 204.62C164.964 204.967 164.537 205.26 164.07 205.5C163.604 205.727 163.124 205.9 162.63 206.02C162.137 206.14 161.65 206.2 161.17 206.2ZM167.869 206V195.42H170.609L170.709 198.82L170.229 198.12C170.389 197.573 170.649 197.08 171.009 196.64C171.369 196.187 171.789 195.833 172.269 195.58C172.763 195.327 173.276 195.2 173.809 195.2C174.036 195.2 174.256 195.22 174.469 195.26C174.683 195.3 174.863 195.347 175.009 195.4L174.249 198.52C174.089 198.44 173.896 198.373 173.669 198.32C173.443 198.253 173.209 198.22 172.969 198.22C172.649 198.22 172.349 198.28 172.069 198.4C171.803 198.507 171.569 198.667 171.369 198.88C171.169 199.08 171.009 199.32 170.889 199.6C170.783 199.88 170.729 200.187 170.729 200.52V206H167.869ZM176.639 206V195.42H179.379L179.479 198.82L178.999 198.12C179.159 197.573 179.419 197.08 179.779 196.64C180.139 196.187 180.559 195.833 181.039 195.58C181.532 195.327 182.045 195.2 182.579 195.2C182.805 195.2 183.025 195.22 183.239 195.26C183.452 195.3 183.632 195.347 183.779 195.4L183.019 198.52C182.859 198.44 182.665 198.373 182.439 198.32C182.212 198.253 181.979 198.22 181.739 198.22C181.419 198.22 181.119 198.28 180.839 198.4C180.572 198.507 180.339 198.667 180.139 198.88C179.939 199.08 179.779 199.32 179.659 199.6C179.552 199.88 179.499 200.187 179.499 200.52V206H176.639ZM189.879 206.2C188.799 206.2 187.832 205.967 186.979 205.5C186.139 205.02 185.472 204.367 184.979 203.54C184.499 202.713 184.259 201.767 184.259 200.7C184.259 199.633 184.499 198.693 184.979 197.88C185.472 197.053 186.139 196.4 186.979 195.92C187.832 195.44 188.799 195.2 189.879 195.2C190.946 195.2 191.899 195.44 192.739 195.92C193.592 196.4 194.259 197.053 194.739 197.88C195.219 198.693 195.459 199.633 195.459 200.7C195.459 201.767 195.219 202.713 194.739 203.54C194.259 204.367 193.592 205.02 192.739 205.5C191.899 205.967 190.946 206.2 189.879 206.2ZM189.879 203.72C190.399 203.72 190.866 203.593 191.279 203.34C191.692 203.073 192.012 202.713 192.239 202.26C192.479 201.793 192.599 201.273 192.599 200.7C192.599 200.113 192.479 199.593 192.239 199.14C192.012 198.673 191.692 198.313 191.279 198.06C190.866 197.793 190.399 197.66 189.879 197.66C189.346 197.66 188.872 197.793 188.459 198.06C188.046 198.327 187.719 198.687 187.479 199.14C187.239 199.593 187.126 200.113 187.139 200.7C187.126 201.273 187.239 201.793 187.479 202.26C187.719 202.713 188.046 203.073 188.459 203.34C188.872 203.593 189.346 203.72 189.879 203.72ZM197.596 206V195.42H200.336L200.436 198.82L199.956 198.12C200.116 197.573 200.376 197.08 200.736 196.64C201.096 196.187 201.516 195.833 201.996 195.58C202.489 195.327 203.002 195.2 203.536 195.2C203.762 195.2 203.982 195.22 204.196 195.26C204.409 195.3 204.589 195.347 204.736 195.4L203.976 198.52C203.816 198.44 203.622 198.373 203.396 198.32C203.169 198.253 202.936 198.22 202.696 198.22C202.376 198.22 202.076 198.28 201.796 198.4C201.529 198.507 201.296 198.667 201.096 198.88C200.896 199.08 200.736 199.32 200.616 199.6C200.509 199.88 200.456 200.187 200.456 200.52V206H197.596Z" fill="black"/>
</svg>
