<svg width="156" height="62" viewBox="0 0 156 62" fill="none" xmlns="http://www.w3.org/2000/svg">
<path d="M21.184 54.32C19.4987 54.32 17.9413 54.032 16.512 53.456C15.0827 52.8587 13.8347 52.0373 12.768 50.992C11.7227 49.9467 10.912 48.7307 10.336 47.344C9.76 45.936 9.472 44.4107 9.472 42.768C9.472 41.1467 9.76 39.6427 10.336 38.256C10.9333 36.848 11.7653 35.632 12.832 34.608C13.8987 33.5627 15.1467 32.752 16.576 32.176C18.0267 31.6 19.584 31.312 21.248 31.312C22.4213 31.312 23.552 31.472 24.64 31.792C25.728 32.112 26.7093 32.56 27.584 33.136C28.4587 33.712 29.184 34.3627 29.76 35.088L27.136 37.84C26.5387 37.264 25.92 36.784 25.28 36.4C24.6613 36.016 24.0107 35.7173 23.328 35.504C22.6453 35.2907 21.9413 35.184 21.216 35.184C20.1493 35.184 19.1573 35.376 18.24 35.76C17.344 36.144 16.5547 36.6773 15.872 37.36C15.2107 38.0427 14.688 38.8427 14.304 39.76C13.92 40.6773 13.728 41.68 13.728 42.768C13.728 43.8133 13.92 44.8053 14.304 45.744C14.7093 46.6827 15.264 47.504 15.968 48.208C16.672 48.912 17.4827 49.4667 18.4 49.872C19.3387 50.256 20.3307 50.448 21.376 50.448C22.1653 50.448 22.9013 50.3307 23.584 50.096C24.2667 49.8613 24.8747 49.5413 25.408 49.136C25.9413 48.7093 26.3467 48.2187 26.624 47.664C26.9227 47.1093 27.072 46.512 27.072 45.872V45.168L27.648 45.84H21.024V42.128H31.168C31.2107 42.3627 31.2427 42.6293 31.264 42.928C31.2853 43.2053 31.296 43.4827 31.296 43.76C31.3173 44.016 31.328 44.24 31.328 44.432C31.328 45.904 31.072 47.248 30.56 48.464C30.048 49.6587 29.3227 50.6933 28.384 51.568C27.4667 52.4427 26.3893 53.1253 25.152 53.616C23.936 54.0853 22.6133 54.32 21.184 54.32ZM32.887 54L41.623 31.6H45.527L54.199 54H49.879L45.079 41.264C44.9723 41.008 44.823 40.6027 44.631 40.048C44.4603 39.4933 44.2683 38.896 44.055 38.256C43.8417 37.5947 43.6497 36.9867 43.479 36.432C43.3083 35.856 43.1803 35.44 43.095 35.184L43.895 35.152C43.767 35.5787 43.6177 36.0587 43.447 36.592C43.2763 37.1253 43.095 37.68 42.903 38.256C42.711 38.832 42.519 39.3867 42.327 39.92C42.1563 40.4533 41.9963 40.9333 41.847 41.36L37.047 54H32.887ZM36.855 48.88L38.295 45.264H48.503L50.039 48.88H36.855ZM57.7268 54V31.6H61.8868V50.16H72.2228V54H57.7268ZM76.9768 54V31.6H81.1368V50.16H91.4728V54H76.9768ZM96.2268 54V31.6H110.883V35.376H100.323V50.224H111.011V54H96.2268ZM98.1468 44.4V40.688H109.251V44.4H98.1468ZM116.227 54V31.6H125.955C127.299 31.6 128.525 31.92 129.635 32.56C130.744 33.1787 131.619 34.032 132.259 35.12C132.92 36.1867 133.251 37.392 133.251 38.736C133.251 40.016 132.92 41.2 132.259 42.288C131.619 43.3547 130.744 44.208 129.635 44.848C128.547 45.4667 127.32 45.776 125.955 45.776H120.291V54H116.227ZM129.219 54L123.523 43.888L127.811 43.088L134.147 54.032L129.219 54ZM120.291 42.16H125.987C126.605 42.16 127.139 42.0213 127.587 41.744C128.056 41.4453 128.419 41.04 128.675 40.528C128.931 40.016 129.059 39.4507 129.059 38.832C129.059 38.128 128.899 37.52 128.579 37.008C128.259 36.496 127.811 36.0907 127.235 35.792C126.659 35.4933 125.997 35.344 125.251 35.344H120.291V42.16ZM142.898 54V42.832L143.122 44.4L134.066 31.6H138.93L145.842 41.52L144.338 41.424L150.578 31.6H155.25L146.578 44.752L147.058 42.576V54H142.898Z" fill="white"/>
<path d="M3.008 32V9.6H12.32C13.6 9.6 14.752 9.90933 15.776 10.528C16.8213 11.1467 17.6533 11.9893 18.272 13.056C18.8907 14.1227 19.2 15.3173 19.2 16.64C19.2 17.984 18.8907 19.2 18.272 20.288C17.6533 21.3547 16.8213 22.208 15.776 22.848C14.752 23.488 13.6 23.808 12.32 23.808H7.168V32H3.008ZM7.168 19.968H12.032C12.5653 19.968 13.0453 19.8187 13.472 19.52C13.92 19.2213 14.272 18.8267 14.528 18.336C14.8053 17.8453 14.944 17.2907 14.944 16.672C14.944 16.0533 14.8053 15.5093 14.528 15.04C14.272 14.5493 13.92 14.1653 13.472 13.888C13.0453 13.5893 12.5653 13.44 12.032 13.44H7.168V19.968ZM37.9698 32V9.6H42.1298V32H37.9698ZM23.6018 32V9.6H27.7618V32H23.6018ZM25.3298 22.784V18.88H39.9858V22.784H25.3298ZM57.8283 32.32C56.2283 32.32 54.7456 32.032 53.3802 31.456C52.0149 30.88 50.8203 30.08 49.7963 29.056C48.7936 28.0107 48.0149 26.784 47.4603 25.376C46.9056 23.968 46.6283 22.432 46.6283 20.768C46.6283 19.104 46.9056 17.568 47.4603 16.16C48.0149 14.752 48.7936 13.536 49.7963 12.512C50.8203 11.4667 52.0149 10.656 53.3802 10.08C54.7456 9.504 56.2283 9.216 57.8283 9.216C59.4496 9.216 60.9429 9.504 62.3083 10.08C63.6736 10.656 64.8576 11.4667 65.8603 12.512C66.8629 13.5573 67.6416 14.784 68.1963 16.192C68.7509 17.5787 69.0283 19.104 69.0283 20.768C69.0283 22.4107 68.7509 23.936 68.1963 25.344C67.6416 26.752 66.8629 27.9787 65.8603 29.024C64.8576 30.0693 63.6736 30.88 62.3083 31.456C60.9429 32.032 59.4496 32.32 57.8283 32.32ZM57.8283 28.352C58.8523 28.352 59.7803 28.1707 60.6123 27.808C61.4656 27.424 62.2016 26.8907 62.8203 26.208C63.4389 25.504 63.9189 24.6933 64.2603 23.776C64.6229 22.8587 64.8043 21.856 64.8043 20.768C64.8043 19.68 64.6229 18.6773 64.2603 17.76C63.9189 16.8427 63.4389 16.0427 62.8203 15.36C62.2016 14.656 61.4656 14.1227 60.6123 13.76C59.7803 13.376 58.8523 13.184 57.8283 13.184C56.8256 13.184 55.8976 13.376 55.0443 13.76C54.1909 14.1227 53.4549 14.6453 52.8363 15.328C52.2176 16.0107 51.7376 16.8107 51.3963 17.728C51.0549 18.6453 50.8843 19.6587 50.8843 20.768C50.8843 21.856 51.0549 22.8693 51.3963 23.808C51.7376 24.7253 52.2176 25.5253 52.8363 26.208C53.4549 26.8907 54.1909 27.424 55.0443 27.808C55.8976 28.1707 56.8256 28.352 57.8283 28.352ZM77.0505 32V13.44H70.6505V9.6H87.8025V13.44H81.2105V32H77.0505ZM100.578 32.32C98.9783 32.32 97.4956 32.032 96.1302 31.456C94.7649 30.88 93.5703 30.08 92.5463 29.056C91.5436 28.0107 90.7649 26.784 90.2103 25.376C89.6556 23.968 89.3783 22.432 89.3783 20.768C89.3783 19.104 89.6556 17.568 90.2103 16.16C90.7649 14.752 91.5436 13.536 92.5463 12.512C93.5703 11.4667 94.7649 10.656 96.1302 10.08C97.4956 9.504 98.9783 9.216 100.578 9.216C102.2 9.216 103.693 9.504 105.058 10.08C106.424 10.656 107.608 11.4667 108.61 12.512C109.613 13.5573 110.392 14.784 110.946 16.192C111.501 17.5787 111.778 19.104 111.778 20.768C111.778 22.4107 111.501 23.936 110.946 25.344C110.392 26.752 109.613 27.9787 108.61 29.024C107.608 30.0693 106.424 30.88 105.058 31.456C103.693 32.032 102.2 32.32 100.578 32.32ZM100.578 28.352C101.602 28.352 102.53 28.1707 103.362 27.808C104.216 27.424 104.952 26.8907 105.57 26.208C106.189 25.504 106.669 24.6933 107.01 23.776C107.373 22.8587 107.554 21.856 107.554 20.768C107.554 19.68 107.373 18.6773 107.01 17.76C106.669 16.8427 106.189 16.0427 105.57 15.36C104.952 14.656 104.216 14.1227 103.362 13.76C102.53 13.376 101.602 13.184 100.578 13.184C99.5756 13.184 98.6476 13.376 97.7943 13.76C96.9409 14.1227 96.2049 14.6453 95.5863 15.328C94.9676 16.0107 94.4876 16.8107 94.1463 17.728C93.8049 18.6453 93.6343 19.6587 93.6343 20.768C93.6343 21.856 93.8049 22.8693 94.1463 23.808C94.4876 24.7253 94.9676 25.5253 95.5863 26.208C96.2049 26.8907 96.9409 27.424 97.7943 27.808C98.6476 28.1707 99.5756 28.352 100.578 28.352Z" fill="white"/>
</svg>
